<?xml version="1.0" encoding="UTF-8"?>
<!DOCTYPE svg PUBLIC "-//W3C//DTD SVG 1.1//EN" "http://www.w3.org/Graphics/SVG/1.1/DTD/svg11.dtd">
<!-- Creator: CorelDRAW 2020 (64-Bit) -->
<svg xmlns="http://www.w3.org/2000/svg" xml:space="preserve" width="136.664mm" height="29.8681mm" version="1.1" style="shape-rendering:geometricPrecision; text-rendering:geometricPrecision; image-rendering:optimizeQuality; fill-rule:evenodd; clip-rule:evenodd"
viewBox="0 0 13979.91 3055.32"
 xmlns:xlink="http://www.w3.org/1999/xlink"
 xmlns:xodm="http://www.corel.com/coreldraw/odm/2003">
 <defs>
  <style type="text/css">
   <![CDATA[
    .fil1 {fill:#D81D26}
    .fil0 {fill:#D81D26;fill-rule:nonzero}
   ]]>
  </style>
 </defs>
 <g id="Capa_x0020_1">
  <metadata id="CorelCorpID_0Corel-Layer"/>
  <g id="_485207664">
   <g>
    <path class="fil0" d="M856 2343.32c-75.6,-156.32 -141.64,-341.67 -187.32,-540.53 -41.41,-180.32 -66.13,-371.77 -66.13,-562.75 0,-193.34 23.93,-387.82 64.82,-570.87 44.02,-196.97 107.71,-380.48 182.38,-534.9l38.12 18.39c-73.41,151.79 -135.99,332.14 -179.23,525.64 -40.17,179.76 -63.67,371.11 -63.67,561.75 0,187.94 24.28,376.16 64.98,553.3 44.95,195.7 109.87,377.97 184.17,531.58l-38.12 18.4z"/>
    <path class="fil0" d="M1845.13 894.51c-10.51,-76.41 -24.19,-151.8 -40.62,-225.34 -44.03,-196.97 -107.71,-380.48 -182.38,-534.9l-38.12 18.39c73.41,151.79 135.99,332.14 179.23,525.64 15.76,70.53 28.96,142.85 39.17,216.22l42.73 0z"/>
    <path class="fil0" d="M1526.94 1827.23c-102.31,-13.34 -206.37,-20.66 -310.27,-20.66 -193.34,0 -387.82,23.93 -570.87,64.82 -110.66,24.73 -217.07,55.68 -316.48,91.29l0 44.98c101.84,-37.22 211.43,-69.48 325.6,-94.99 179.76,-40.17 371.11,-63.67 561.75,-63.67 103.98,0 208.05,7.45 310.27,20.98l0 -42.75z"/>
    <path class="fil0" d="M2155.69 509.06c-116.28,45.54 -243.24,85.2 -376.26,115.76 -180.32,41.42 -371.77,66.14 -562.75,66.14 -193.34,0 -387.82,-23.93 -570.87,-64.83 -118.11,-26.39 -231.38,-59.86 -336.44,-98.53l0 -45.13c107.44,40.37 223.9,75.21 345.57,102.4 179.76,40.16 371.11,63.67 561.75,63.67 187.94,0 376.16,-24.29 553.3,-64.98 136.87,-31.45 267.18,-72.65 385.71,-120.01l0 45.52z"/>
    <path class="fil1" d="M1240.03 0c564.47,0 1040.78,377.18 1190.81,893.23l-114.85 0c-146.4,-454.54 -572.74,-783.45 -1075.97,-783.45 -624.22,0 -1130.24,506.04 -1130.24,1130.26 0,624.22 506.03,1130.24 1130.24,1130.24 99.16,0 195.32,-12.82 286.96,-36.8l0 113.14c-92.12,21.83 -188.18,33.44 -286.96,33.44 -684.85,0 -1240.03,-555.18 -1240.03,-1240.03 0,-684.86 555.18,-1240.04 1240.03,-1240.04z"/>
    <polygon class="fil0" points="1251.62,47.41 1251.62,2432.66 1209.17,2432.66 1209.17,47.41 "/>
    <polygon class="fil0" points="1525.71,1235.06 26.55,1235.06 26.55,1192.62 1525.71,1192.62 "/>
    <path class="fil0" d="M1879.99 1025.5l868.27 0c61.3,0 117.01,25.04 157.36,65.39 40.33,40.34 65.39,96.05 65.39,157.36l0 1584.34c0,61.3 -25.05,117.01 -65.39,157.36 -40.34,40.33 -96.05,65.39 -157.36,65.39l-868.27 0c-61.3,0 -117,-25.05 -157.35,-65.39 -40.35,-40.34 -65.4,-96.05 -65.4,-157.36l0 -1584.34c0,-61.3 25.04,-117.01 65.4,-157.36 40.34,-40.34 96.04,-65.39 157.35,-65.39zm-126.56 1576.31l1121.39 0 0 -1205.08 -1121.39 0 0 1205.08zm1121.39 47.4l-1121.39 0 0 183.37c0,34.75 14.26,66.39 37.21,89.34 22.96,22.95 54.59,37.21 89.34,37.21l868.27 0c34.76,0 66.39,-14.26 89.35,-37.21 22.95,-22.95 37.2,-54.59 37.2,-89.34l0 -183.37zm-1121.39 -1299.9l1121.39 0 0 -101.07c0,-34.76 -14.25,-66.39 -37.2,-89.34 -22.96,-22.96 -54.59,-37.21 -89.35,-37.21l-868.27 0c-34.75,0 -66.38,14.25 -89.34,37.21 -22.95,22.95 -37.21,54.58 -37.21,89.34l0 101.07zm560.7 1361.05c48.22,0 87.32,39.1 87.32,87.33 0,48.22 -39.1,87.32 -87.32,87.32 -48.23,0 -87.33,-39.1 -87.33,-87.32 0,-48.23 39.1,-87.33 87.33,-87.33z"/>
   </g>
   <path class="fil0" d="M3460.24 2145.2l0 -1245.58 542.09 0c56.14,0 107.9,11.69 155.26,35.09 47.37,23.39 88.01,54.09 121.92,92.11 33.92,38.01 60.53,81.28 79.83,129.82 19.29,48.54 28.94,97.95 28.94,148.24 0,42.1 -5.84,82.45 -17.54,121.04 -11.69,38.6 -28.07,74.27 -49.12,107.02 -21.05,32.74 -46.78,61.1 -77.19,85.08 -30.4,23.98 -63.74,41.82 -99.99,53.51l296.48 473.67 -222.8 0 -273.68 -433.32 -287.71 0 0 433.32 -196.49 0zm196.49 -607l343.85 0c28.07,0 53.51,-6.14 76.31,-18.42 22.81,-12.28 42.4,-29.24 58.77,-50.87 16.38,-21.64 29.25,-46.49 38.6,-74.56 9.36,-28.07 14.03,-57.89 14.03,-89.47 0,-31.58 -5.55,-61.41 -16.66,-89.48 -11.11,-28.07 -25.73,-52.63 -43.85,-73.68 -18.13,-21.05 -39.18,-37.72 -63.16,-50 -23.98,-12.28 -48.84,-18.41 -74.56,-18.41l-333.32 0 0 464.89z"/>
   <polygon id="1" class="fil0" points="9870.14,1268.03 9870.14,2145.2 9673.66,2145.2 9673.66,899.62 9828.04,899.62 10540.3,1797.85 10540.3,901.38 10738.53,901.38 10738.53,2145.2 10575.39,2145.2 "/>
   <path id="2" class="fil0" d="M5011.17 2151.56c-68.8,0 -131.25,-12.7 -187.36,-38.1 -56.1,-25.41 -104.27,-59.02 -144.49,-100.83 -40.22,-41.82 -71.45,-89.45 -93.68,-142.9 -22.23,-53.46 -33.35,-108.77 -33.35,-165.93 0,-58.22 11.65,-114.06 34.93,-167.52 23.29,-53.45 55.58,-100.82 96.86,-142.11 41.28,-41.29 89.98,-74.1 146.08,-98.45 56.11,-24.35 117.49,-36.52 184.19,-36.52 68.8,0 131.25,12.97 187.36,38.9 56.11,25.93 104.27,59.81 144.49,101.62 40.23,41.82 71.19,89.71 92.89,143.7 21.7,53.98 32.55,108.5 32.55,163.55 0,58.22 -11.39,114.06 -34.15,167.52 -22.75,53.45 -54.78,100.82 -96.05,142.11 -41.29,41.29 -89.98,74.1 -146.09,98.45 -56.1,24.35 -117.49,36.52 -184.19,36.52zm-298.5 -446.18c0,39.16 6.87,77.01 20.64,113.53 13.76,36.52 33.87,69.07 60.33,97.65 26.46,28.58 57.96,51.34 94.48,68.28 36.52,16.93 78.06,25.4 124.65,25.4 47.63,0 89.71,-8.99 126.23,-27 36.52,-17.99 67.48,-41.28 92.88,-69.86 25.41,-28.58 44.72,-61.13 57.96,-97.66 13.23,-36.52 19.85,-73.83 19.85,-111.94 0,-39.17 -7.14,-77.01 -21.43,-113.53 -14.29,-36.52 -34.41,-68.8 -60.34,-96.86 -25.93,-28.05 -57.16,-50.54 -93.68,-67.48 -36.52,-16.93 -77.54,-25.4 -123.06,-25.4 -46.57,0 -88.38,8.99 -125.43,27 -37.05,17.99 -68.28,41.28 -93.68,69.86 -25.41,28.58 -44.99,61.13 -58.75,97.66 -13.77,36.52 -20.64,73.3 -20.64,110.35z"/>
   <polygon id="3" class="fil0" points="5643.13,2145.2 5643.13,1263.96 5801.91,1263.96 5801.91,2005.47 6281.44,2005.47 6281.44,2145.2 "/>
   <polygon id="4" class="fil0" points="6427.52,2145.2 6427.52,1263.96 6586.3,1263.96 6586.3,2005.47 7065.83,2005.47 7065.83,2145.2 "/>
   <polygon id="5" class="fil0" points="7211.91,2145.2 7211.91,1263.96 7370.69,1263.96 7370.69,2145.2 "/>
   <polygon id="6" class="fil0" points="7758.12,1557.71 7758.12,2145.2 7599.34,2145.2 7599.34,1263.96 7723.19,1263.96 8274.16,1864.16 8274.16,1263.96 8431.36,1263.96 8431.36,2145.2 8301.16,2145.2 "/>
   <path id="7" class="fil0" d="M9323.72 2043.59c-79.39,71.98 -169.9,107.97 -271.52,107.97 -62.46,0 -120.94,-12.44 -175.45,-37.32 -54.52,-24.88 -101.88,-58.22 -142.12,-100.03 -40.22,-41.81 -71.97,-89.98 -95.27,-144.49 -23.28,-54.51 -34.93,-110.89 -34.93,-169.1 0,-60.34 11.39,-117.24 34.14,-170.7 22.76,-53.45 54.52,-100.55 95.28,-141.31 40.75,-40.75 88.65,-72.78 143.69,-96.06 55.04,-23.29 115.39,-34.93 181.02,-34.93 89.98,0 165.92,17.73 227.85,53.19 61.93,35.46 108.24,81.77 138.94,138.94l-120.68 88.91c-24.35,-46.57 -59.01,-81.51 -104,-104.79 -44.99,-23.29 -94.48,-34.93 -148.46,-34.93 -43.4,0 -82.84,8.47 -118.29,25.4 -35.47,16.94 -65.63,39.43 -90.51,67.48 -24.88,28.05 -44.19,60.6 -57.95,97.65 -13.77,37.05 -20.64,75.69 -20.64,115.92 0,42.34 7.67,82.03 23.02,119.08 15.35,37.05 36.26,69.33 62.73,96.86 26.46,27.52 57.95,49.22 94.47,65.1 36.52,15.88 76.49,23.81 119.89,23.81 94.2,0 180.48,-41.29 258.81,-123.85l0 -74.63 -201.65 0 0 -115.91 335.02 0 0 449.36 -133.37 0 0 -101.62z"/>
   <polygon id="8" class="fil0" points="11661.67,2005.47 11661.67,2145.2 10993.21,2145.2 10993.21,1263.96 11648.98,1263.96 11648.98,1403.69 11151.99,1403.69 11151.99,1632.33 11583.88,1632.33 11583.88,1760.95 11151.99,1760.95 11151.99,2005.47 "/>
   <polygon id="9" class="fil0" points="12192.02,1268.72 12338.09,1268.72 12457.18,1562.48 12576.26,1268.72 12723.94,1268.72 12557.22,1665.68 12693.77,1954.66 13000.22,1263.96 13173.29,1263.96 12773.16,2145.2 12638.19,2145.2 12458.77,1765.71 12279.35,2145.2 12142.79,2145.2 11742.66,1263.96 11914.15,1263.96 12223.77,1954.66 12357.15,1665.68 "/>
   <path id="10" class="fil0" d="M13870.34 1486.26c-21.16,-20.11 -54.78,-39.97 -100.82,-59.55 -46.05,-19.58 -97.65,-29.38 -154.81,-29.38 -61.4,0 -106.65,9.8 -135.76,29.38 -29.11,19.58 -43.66,46.31 -43.66,80.19 0,19.05 4.76,34.93 14.29,47.63 9.52,12.7 24.08,23.82 43.66,33.35 19.59,9.52 43.94,18.26 73.04,26.2 29.11,7.94 62.73,16.14 100.83,24.61 47.64,11.64 90.78,23.82 129.41,36.52 38.64,12.7 71.45,28.85 98.44,48.44 27,19.58 47.9,43.13 62.73,70.65 14.81,27.52 22.23,61.4 22.23,101.62 0,46.57 -9.27,86.27 -27.79,119.09 -18.53,32.82 -43.92,59.55 -76.21,80.19 -32.28,20.63 -69.6,35.72 -111.94,45.24 -42.35,9.53 -87.34,14.29 -134.97,14.29 -71.98,0 -142.12,-10.06 -210.39,-30.17 -68.28,-20.11 -129.41,-48.69 -183.39,-85.74l73.04 -136.55c12.7,12.7 30.17,25.67 52.39,38.9 22.23,13.23 47.37,25.14 75.42,35.72 28.05,10.59 58.75,19.32 92.1,26.21 33.35,6.87 68.02,10.32 104,10.32 56.11,0 99.77,-8.47 131,-25.41 31.23,-16.94 46.84,-42.34 46.84,-76.22 0,-20.11 -6.09,-37.04 -18.26,-50.81 -12.17,-13.76 -29.38,-25.93 -51.61,-36.52 -22.23,-10.59 -49.22,-20.11 -80.98,-28.58 -31.76,-8.47 -67.75,-17.46 -107.97,-27 -46.57,-11.64 -87.33,-24.08 -122.26,-37.31 -34.93,-13.24 -63.78,-29.38 -86.54,-48.44 -22.76,-19.05 -39.96,-41.28 -51.61,-66.69 -11.64,-25.4 -17.46,-55.58 -17.46,-90.51 0,-43.39 8.74,-81.77 26.2,-115.11 17.47,-33.35 41.82,-61.4 73.04,-84.16 31.23,-22.76 67.75,-39.96 109.57,-51.61 41.81,-11.64 87.06,-17.46 135.75,-17.46 65.63,0 125.71,9.52 180.22,28.58 54.51,19.06 101.88,42.87 142.11,71.45l-69.87 128.61z"/>
  </g>
 </g>
</svg>
