<?xml version="1.0" encoding="utf-8"?>
<!-- Generator: Adobe Illustrator 22.0.0, SVG Export Plug-In . SVG Version: 6.00 Build 0)  -->
<svg version="1.1" id="Capa_1" xmlns="http://www.w3.org/2000/svg" xmlns:xlink="http://www.w3.org/1999/xlink" x="0px" y="0px"
	 viewBox="0 0 100 100" style="enable-background:new 0 0 100 100;" xml:space="preserve">
<g id="_1579219824">
	<g>
		<path d="M32.7,72.9c-2.1-4.3-3.9-9.5-5.2-15c-1.1-5-1.8-10.3-1.8-15.6c0-5.4,0.7-10.7,1.8-15.8c1.2-5.5,3-10.5,5.1-14.8l1.1,0.5
			c-2,4.2-3.8,9.2-5,14.6c-1.1,5-1.8,10.3-1.8,15.6c0,5.2,0.7,10.4,1.8,15.3c1.2,5.4,3,10.5,5.1,14.7L32.7,72.9L32.7,72.9z"/>
		<path d="M60.1,32.8c-0.3-2.1-0.7-4.2-1.1-6.2C57.8,21.1,56,16,54,11.7l-1.1,0.5c2,4.2,3.8,9.2,5,14.6c0.4,2,0.8,4,1.1,6L60.1,32.8
			L60.1,32.8z"/>
		<path d="M51.3,58.6c-2.8-0.4-5.7-0.6-8.6-0.6c-5.4,0-10.7,0.7-15.8,1.8c-3.1,0.7-6,1.5-8.8,2.5v1.2c2.8-1,5.9-1.9,9-2.6
			c5-1.1,10.3-1.8,15.6-1.8c2.9,0,5.8,0.2,8.6,0.6C51.3,59.8,51.3,58.6,51.3,58.6z"/>
		<path d="M68.7,22.1c-3.2,1.3-6.7,2.4-10.4,3.2c-5,1.1-10.3,1.8-15.6,1.8c-5.4,0-10.7-0.7-15.8-1.8c-3.3-0.7-6.4-1.7-9.3-2.7v-1.3
			c3,1.1,6.2,2.1,9.6,2.8c5,1.1,10.3,1.8,15.6,1.8c5.2,0,10.4-0.7,15.3-1.8c3.8-0.9,7.4-2,10.7-3.3L68.7,22.1L68.7,22.1z"/>
		<path d="M43.4,8c15.6,0,28.8,10.5,33,24.8h-3.2C69.1,20.2,57.3,11,43.4,11C26.1,11,12,25.1,12,42.4s14,31.3,31.3,31.3
			c2.7,0,5.4-0.4,8-1v3.1c-2.6,0.6-5.2,0.9-8,0.9C24.4,76.7,9,61.3,9,42.4C9,23.4,24.4,8,43.4,8L43.4,8z"/>
		<polygon points="43.7,9.3 43.7,75.4 42.5,75.4 42.5,9.3 		"/>
		<polygon points="51.3,42.2 9.7,42.2 9.7,41 51.3,41 		"/>
		<path d="M61.1,36.4h24.1c1.7,0,3.2,0.7,4.4,1.8c1.1,1.1,1.8,2.7,1.8,4.4v43.9c0,1.7-0.7,3.2-1.8,4.4c-1.1,1.1-2.7,1.8-4.4,1.8
			H61.1c-1.7,0-3.2-0.7-4.4-1.8c-1.1-1.1-1.8-2.7-1.8-4.4V42.6c0-1.7,0.7-3.2,1.8-4.4C57.9,37.1,59.4,36.4,61.1,36.4z M57.6,80.1
			h31.1V46.7H57.6C57.6,46.7,57.6,80.1,57.6,80.1z M88.7,81.4H57.6v5.1c0,1,0.4,1.8,1,2.5c0.6,0.6,1.5,1,2.5,1h24.1
			c1,0,1.8-0.4,2.5-1c0.6-0.6,1-1.5,1-2.5L88.7,81.4L88.7,81.4z M57.6,45.4h31.1v-2.8c0-1-0.4-1.8-1-2.5c-0.6-0.6-1.5-1-2.5-1H61.1
			c-1,0-1.8,0.4-2.5,1c-0.6,0.6-1,1.5-1,2.5L57.6,45.4L57.6,45.4z M73.1,83.1c1.3,0,2.4,1.1,2.4,2.4c0,1.3-1.1,2.4-2.4,2.4
			c-1.3,0-2.4-1.1-2.4-2.4C70.7,84.2,71.8,83.1,73.1,83.1z"/>
	</g>
</g>
</svg>
